<svg xmlns="http://www.w3.org/2000/svg" viewBox="0 0 256 256" role="img" aria-labelledby="title desc">
  <title id="title">gmenu logo</title>
  <desc id="desc">A simple game menu panel icon with a small clown-like face.</desc>
  <rect width="256" height="256" rx="48" fill="#172033"/>
  <circle cx="78" cy="178" r="36" fill="#ff3150"/>
  <circle cx="178" cy="178" r="36" fill="#11c4d9"/>
  <path d="M64 96c0-36 29-64 64-64s64 28 64 64v43c0 39-29 69-64 69s-64-30-64-69V96z" fill="#f6f8ff"/>
  <path d="M70 101c3-30 25-55 52-64 7-2 13 4 11 11-5 28-25 40-50 49l-13 4z" fill="#ff9b1f"/>
  <path d="M186 101c-3-30-25-55-52-64-7-2-13 4-11 11 5 28 25 40 50 49l13 4z" fill="#ff9b1f"/>
  <circle cx="105" cy="88" r="9" fill="#172033"/>
  <circle cx="151" cy="88" r="9" fill="#172033"/>
  <circle cx="128" cy="98" r="13" fill="#ff3150"/>
  <path d="M105 181c14 15 32 15 46 0" fill="none" stroke="#172033" stroke-width="10" stroke-linecap="round"/>
  <rect x="74" y="116" width="108" height="58" rx="12" fill="#dce6f7" stroke="#172033" stroke-width="7"/>
  <rect x="92" y="130" width="72" height="10" rx="5" fill="#376994"/>
  <rect x="92" y="150" width="56" height="10" rx="5" fill="#376994"/>
  <circle cx="82" cy="135" r="5" fill="#ff3150"/>
  <circle cx="82" cy="155" r="5" fill="#11c4d9"/>
</svg>
